# xmcd CD database file
#
# Track frame offsets:
#	150
#	28496
#	69167
#	103000
#	125797
#	195256
#	241425
#	279813
#
# Disc length: 4213 seconds
#
# Revision: 0
# Processed by: cddbd v1.5.2PL0 Copyright (c) Steve Scherf et al.
# Submitted via: CDex 1.70beta2
#
DISCID=6c107308
DTITLE=Barbara Dennerlein - Spiritual Movement No. 2
DYEAR=2008
DGENRE=Jazz
TTITLE0=The Unforgettable
TTITLE1=Always Remember
TTITLE2=I-797
TTITLE3=Funkish
TTITLE4=New York Impressions
TTITLE5=Farewell To Old Friends
TTITLE6=Satisfaction
TTITLE7=Home Is Where My Heart Is
EXTD=YEAR: 2008
EXTT0=
EXTT1=
EXTT2=
EXTT3=
EXTT4=
EXTT5=
EXTT6=
EXTT7=
PLAYORDER=
